<?xml version="1.0" encoding="utf-8"?>
<!-- Generator: Adobe Illustrator 16.0.5, SVG Export Plug-In . SVG Version: 6.00 Build 0)  -->
<!DOCTYPE svg PUBLIC "-//W3C//DTD SVG 1.1//EN" "http://www.w3.org/Graphics/SVG/1.1/DTD/svg11.dtd">
<svg version="1.1" id="Layer_1" xmlns="http://www.w3.org/2000/svg" xmlns:xlink="http://www.w3.org/1999/xlink" x="0px" y="0px"
	 viewBox="0 348 300 52" enable-background="new 0 348 300 52" xml:space="preserve">
<line fill="none" stroke="#CDC5B8" stroke-miterlimit="10" x1="0" y1="375.4" x2="104" y2="375.4"/>
<line fill="none" stroke="#CDC5B8" stroke-miterlimit="10" x1="196" y1="375.4" x2="300" y2="375.4"/>
<g>
	<g>
		<defs>
			<circle id="SVGID_1_" cx="149.805" cy="374.1" r="25"/>
		</defs>
		<clipPath id="SVGID_2_">
			<use xlink:href="#SVGID_1_"  overflow="visible"/>
		</clipPath>
		<g clip-path="url(#SVGID_2_)">
			<g>
				<g>
					<g>
						<g>
							<rect x="114.455" y="348" fill="#FFFFFF" width="96.857" height="50.979"/>
							<path fill="#FFFFFF" d="M162.884,373.488"/>
						</g>
						<g>
							<g>
								<rect x="153.184" y="347.993" fill="#BE0B34" width="58.129" height="3.93"/>
							</g>
							<g>
								<rect x="153.184" y="355.835" fill="#BE0B34" width="58.129" height="3.931"/>
							</g>
							<g>
								<rect x="153.184" y="363.678" fill="#BE0B34" width="58.129" height="3.93"/>
							</g>
							<g>
								<rect x="153.184" y="371.521" fill="#BE0B34" width="58.129" height="3.93"/>
							</g>
							<g>
								<rect x="114.455" y="379.363" fill="#BE0B34" width="96.857" height="3.93"/>
								<path fill="#BE0B34" d="M162.884,381.328"/>
							</g>
							<g>
								<rect x="114.455" y="387.205" fill="#BE0B34" width="96.857" height="3.932"/>
								<path fill="#BE0B34" d="M162.884,389.171"/>
							</g>
							<g>
								<rect x="114.455" y="395.048" fill="#BE0B34" width="96.857" height="3.931"/>
								<path fill="#BE0B34" d="M162.884,397.014"/>
							</g>
						</g>
					</g>
					<g>
						<rect x="114.446" y="347.994" fill="#012776" width="38.744" height="27.462"/>
						<path fill="#003671" d="M133.817,361.725"/>
					</g>
				</g>
				<g>
					<g>
						<polygon fill="#FFFFFF" points="117.583,349.059 117.233,350.133 116.101,350.133 117.018,350.799 116.667,351.874 
							117.579,351.212 118.498,351.875 118.149,350.799 119.064,350.133 117.932,350.133 						"/>
					</g>
					<g>
						<polygon fill="#FFFFFF" points="124.079,349.059 123.729,350.133 122.598,350.133 123.515,350.799 123.165,351.874 
							124.076,351.212 124.995,351.875 124.646,350.799 125.562,350.133 124.429,350.133 						"/>
					</g>
					<g>
						<polygon fill="#FFFFFF" points="130.576,349.059 130.227,350.133 129.095,350.133 130.012,350.799 129.661,351.874 
							130.573,351.212 131.492,351.875 131.143,350.799 132.059,350.133 130.926,350.133 						"/>
					</g>
					<g>
						<polygon fill="#FFFFFF" points="137.073,349.059 136.724,350.133 135.592,350.133 136.509,350.799 136.158,351.874 
							137.069,351.212 137.989,351.875 137.64,350.799 138.555,350.133 137.423,350.133 						"/>
					</g>
					<g>
						<polygon fill="#FFFFFF" points="143.57,349.059 143.221,350.133 142.089,350.133 143.006,350.799 142.655,351.874 
							143.566,351.212 144.486,351.875 144.137,350.799 145.052,350.133 143.92,350.133 						"/>
					</g>
					<g>
						<polygon fill="#FFFFFF" points="150.067,349.059 149.718,350.133 148.586,350.133 149.502,350.799 149.152,351.874 
							150.063,351.212 150.982,351.875 150.634,350.799 151.549,350.133 150.417,350.133 						"/>
					</g>
					<g>
						<polygon fill="#FFFFFF" points="120.831,351.87 120.481,352.945 119.35,352.945 120.267,353.609 119.916,354.688 
							120.827,354.023 121.746,354.688 121.397,353.609 122.312,352.945 121.181,352.945 						"/>
					</g>
					<g>
						<polygon fill="#FFFFFF" points="127.328,351.87 126.979,352.945 125.846,352.945 126.763,353.609 126.413,354.688 
							127.324,354.023 128.243,354.688 127.895,353.609 128.81,352.945 127.678,352.945 						"/>
					</g>
					<g>
						<polygon fill="#FFFFFF" points="133.825,351.87 133.476,352.945 132.343,352.945 133.26,353.609 132.91,354.688 
							133.821,354.023 134.74,354.688 134.392,353.609 135.307,352.945 134.175,352.945 						"/>
					</g>
					<g>
						<polygon fill="#FFFFFF" points="140.322,351.87 139.972,352.945 138.84,352.945 139.757,353.609 139.407,354.688 
							140.318,354.023 141.237,354.688 140.889,353.609 141.804,352.945 140.671,352.945 						"/>
					</g>
					<g>
						<polygon fill="#FFFFFF" points="146.819,351.87 146.469,352.945 145.337,352.945 146.254,353.609 145.903,354.688 
							146.815,354.023 147.734,354.688 147.386,353.609 148.301,352.945 147.168,352.945 						"/>
					</g>
					<g>
						<polygon fill="#FFFFFF" points="117.583,354.682 117.233,355.758 116.101,355.758 117.018,356.423 116.667,357.499 
							117.579,356.837 118.498,357.5 118.149,356.423 119.064,355.758 117.932,355.758 						"/>
					</g>
					<g>
						<polygon fill="#FFFFFF" points="130.576,354.682 130.227,355.758 129.095,355.758 130.012,356.423 129.661,357.499 
							130.573,356.837 131.492,357.5 131.143,356.423 132.059,355.758 130.926,355.758 						"/>
					</g>
					<g>
						<polygon fill="#FFFFFF" points="137.073,354.682 136.724,355.758 135.592,355.758 136.509,356.423 136.158,357.499 
							137.069,356.837 137.989,357.5 137.64,356.423 138.555,355.758 137.423,355.758 						"/>
					</g>
					<g>
						<polygon fill="#FFFFFF" points="143.57,354.682 143.221,355.758 142.089,355.758 143.006,356.423 142.655,357.499 
							143.566,356.837 144.486,357.5 144.137,356.423 145.052,355.758 143.92,355.758 						"/>
					</g>
					<g>
						<polygon fill="#FFFFFF" points="150.067,354.682 149.718,355.758 148.586,355.758 149.502,356.423 149.152,357.499 
							150.063,356.837 150.982,357.5 150.634,356.423 151.549,355.758 150.417,355.758 						"/>
					</g>
					<g>
						<polygon fill="#FFFFFF" points="120.831,357.494 120.481,358.57 119.35,358.57 120.267,359.234 119.916,360.312 
							120.827,359.648 121.746,360.312 121.397,359.234 122.312,358.57 121.181,358.57 						"/>
					</g>
					<g>
						<polygon fill="#FFFFFF" points="127.328,357.494 126.979,358.57 125.846,358.57 126.763,359.234 126.413,360.312 
							127.324,359.648 128.243,360.312 127.895,359.234 128.81,358.57 127.678,358.57 						"/>
					</g>
					<g>
						<polygon fill="#FFFFFF" points="133.825,357.494 133.476,358.57 132.343,358.57 133.26,359.234 132.91,360.312 
							133.821,359.648 134.74,360.312 134.392,359.234 135.307,358.57 134.175,358.57 						"/>
					</g>
					<g>
						<polygon fill="#FFFFFF" points="140.322,357.494 139.972,358.57 138.84,358.57 139.757,359.234 139.407,360.312 
							140.318,359.648 141.237,360.312 140.889,359.234 141.804,358.57 140.671,358.57 						"/>
					</g>
					<g>
						<polygon fill="#FFFFFF" points="146.819,357.494 146.469,358.57 145.337,358.57 146.254,359.234 145.903,360.312 
							146.815,359.648 147.734,360.312 147.386,359.234 148.301,358.57 147.168,358.57 						"/>
					</g>
					<g>
						<polygon fill="#FFFFFF" points="117.583,360.307 117.233,361.383 116.101,361.383 117.018,362.048 116.667,363.124 
							117.579,362.461 118.498,363.125 118.149,362.048 119.064,361.383 117.932,361.383 						"/>
					</g>
					<g>
						<polygon fill="#FFFFFF" points="124.079,360.307 123.729,361.383 122.598,361.383 123.515,362.048 123.165,363.124 
							124.076,362.461 124.995,363.125 124.646,362.048 125.562,361.383 124.429,361.383 						"/>
					</g>
					<g>
						<polygon fill="#FFFFFF" points="130.576,360.307 130.227,361.383 129.095,361.383 130.012,362.048 129.661,363.124 
							130.573,362.461 131.492,363.125 131.143,362.048 132.059,361.383 130.926,361.383 						"/>
					</g>
					<g>
						<polygon fill="#FFFFFF" points="137.073,360.307 136.724,361.383 135.592,361.383 136.509,362.048 136.158,363.124 
							137.069,362.461 137.989,363.125 137.64,362.048 138.555,361.383 137.423,361.383 						"/>
					</g>
					<g>
						<polygon fill="#FFFFFF" points="143.57,360.307 143.221,361.383 142.089,361.383 143.006,362.048 142.655,363.124 
							143.566,362.461 144.486,363.125 144.137,362.048 145.052,361.383 143.92,361.383 						"/>
					</g>
					<g>
						<polygon fill="#FFFFFF" points="150.067,360.307 149.718,361.383 148.586,361.383 149.502,362.048 149.152,363.124 
							150.063,362.461 150.982,363.125 150.634,362.048 151.549,361.383 150.417,361.383 						"/>
					</g>
					<g>
						<polygon fill="#FFFFFF" points="120.831,363.119 120.481,364.195 119.35,364.195 120.267,364.859 119.916,365.938 
							120.827,365.273 121.746,365.938 121.397,364.859 122.312,364.195 121.181,364.195 						"/>
					</g>
					<g>
						<polygon fill="#FFFFFF" points="127.328,363.119 126.979,364.195 125.846,364.195 126.763,364.859 126.413,365.938 
							127.324,365.273 128.243,365.938 127.895,364.859 128.81,364.195 127.678,364.195 						"/>
					</g>
					<g>
						<polygon fill="#FFFFFF" points="133.825,363.119 133.476,364.195 132.343,364.195 133.26,364.859 132.91,365.938 
							133.821,365.273 134.74,365.938 134.392,364.859 135.307,364.195 134.175,364.195 						"/>
					</g>
					<g>
						<polygon fill="#FFFFFF" points="140.322,363.119 139.972,364.195 138.84,364.195 139.757,364.859 139.407,365.938 
							140.318,365.273 141.237,365.938 140.889,364.859 141.804,364.195 140.671,364.195 						"/>
					</g>
					<g>
						<polygon fill="#FFFFFF" points="117.583,365.932 117.233,367.007 116.101,367.007 117.018,367.673 116.667,368.749 
							117.579,368.086 118.498,368.75 118.149,367.673 119.064,367.007 117.932,367.007 						"/>
					</g>
					<g>
						<polygon fill="#FFFFFF" points="124.079,365.932 123.729,367.007 122.598,367.007 123.515,367.673 123.165,368.749 
							124.076,368.086 124.995,368.75 124.646,367.673 125.562,367.007 124.429,367.007 						"/>
					</g>
					<g>
						<polygon fill="#FFFFFF" points="130.576,365.932 130.227,367.007 129.095,367.007 130.012,367.673 129.661,368.749 
							130.573,368.086 131.492,368.75 131.143,367.673 132.059,367.007 130.926,367.007 						"/>
					</g>
					<g>
						<polygon fill="#FFFFFF" points="137.073,365.932 136.724,367.007 135.592,367.007 136.509,367.673 136.158,368.749 
							137.069,368.086 137.989,368.75 137.64,367.673 138.555,367.007 137.423,367.007 						"/>
					</g>
					<g>
						<polygon fill="#FFFFFF" points="143.57,365.932 143.221,367.007 142.089,367.007 143.006,367.673 142.655,368.749 
							143.566,368.086 144.486,368.75 144.137,367.673 145.052,367.007 143.92,367.007 						"/>
					</g>
					<g>
						<polygon fill="#FFFFFF" points="150.067,365.932 149.718,367.007 148.586,367.007 149.502,367.673 149.152,368.749 
							150.063,368.086 150.982,368.75 150.634,367.673 151.549,367.007 150.417,367.007 						"/>
					</g>
					<g>
						<polygon fill="#FFFFFF" points="120.831,368.744 120.481,369.82 119.35,369.82 120.267,370.484 119.916,371.561 
							120.827,370.898 121.746,371.562 121.397,370.484 122.312,369.82 121.181,369.82 						"/>
					</g>
					<g>
						<polygon fill="#FFFFFF" points="127.328,368.744 126.979,369.82 125.846,369.82 126.763,370.484 126.413,371.561 
							127.324,370.898 128.243,371.562 127.895,370.484 128.81,369.82 127.678,369.82 						"/>
					</g>
					<g>
						<polygon fill="#FFFFFF" points="133.825,368.744 133.476,369.82 132.343,369.82 133.26,370.484 132.91,371.561 
							133.821,370.898 134.74,371.562 134.392,370.484 135.307,369.82 134.175,369.82 						"/>
					</g>
					<g>
						<polygon fill="#FFFFFF" points="140.322,368.744 139.972,369.82 138.84,369.82 139.757,370.484 139.407,371.561 
							140.318,370.898 141.237,371.562 140.889,370.484 141.804,369.82 140.671,369.82 						"/>
					</g>
					<g>
						<polygon fill="#FFFFFF" points="146.819,368.744 146.469,369.82 145.337,369.82 146.254,370.484 145.903,371.561 
							146.815,370.898 147.734,371.562 147.386,370.484 148.301,369.82 147.168,369.82 						"/>
					</g>
					<g>
						<polygon fill="#FFFFFF" points="117.583,371.557 117.233,372.633 116.101,372.633 117.018,373.297 116.667,374.373 
							117.579,373.711 118.498,374.374 118.149,373.297 119.064,372.633 117.932,372.633 						"/>
					</g>
					<g>
						<polygon fill="#FFFFFF" points="124.079,371.557 123.729,372.633 122.598,372.633 123.515,373.297 123.165,374.373 
							124.076,373.711 124.995,374.374 124.646,373.297 125.562,372.633 124.429,372.633 						"/>
					</g>
					<g>
						<polygon fill="#FFFFFF" points="130.576,371.557 130.227,372.633 129.095,372.633 130.012,373.297 129.661,374.373 
							130.573,373.711 131.492,374.374 131.143,373.297 132.059,372.633 130.926,372.633 						"/>
					</g>
					<g>
						<polygon fill="#FFFFFF" points="137.073,371.557 136.724,372.633 135.592,372.633 136.509,373.297 136.158,374.373 
							137.069,373.711 137.989,374.374 137.64,373.297 138.555,372.633 137.423,372.633 						"/>
					</g>
					<g>
						<polygon fill="#FFFFFF" points="143.57,371.557 143.221,372.633 142.089,372.633 143.006,373.297 142.655,374.373 
							143.566,373.711 144.486,374.374 144.137,373.297 145.052,372.633 143.92,372.633 						"/>
					</g>
					<g>
						<polygon fill="#FFFFFF" points="150.067,371.557 149.718,372.633 148.586,372.633 149.502,373.297 149.152,374.373 
							150.063,373.711 150.982,374.374 150.634,373.297 151.549,372.633 150.417,372.633 						"/>
					</g>
					<g>
						<polygon fill="#FFFFFF" points="124.079,354.658 123.729,355.734 122.598,355.734 123.515,356.398 123.165,357.475 
							124.076,356.812 124.995,357.477 124.646,356.398 125.562,355.734 124.429,355.734 						"/>
					</g>
					<g>
						<polygon fill="#FFFFFF" points="146.814,363.119 146.465,364.195 145.333,364.195 146.25,364.859 145.899,365.938 
							146.811,365.273 147.729,365.938 147.381,364.859 148.296,364.195 147.164,364.195 						"/>
					</g>
				</g>
			</g>
			<g>
				<path fill="none" stroke="#000000" stroke-width="0.5" d="M162.884,373.488"/>
			</g>
		</g>
	</g>
	<g>
		<defs>
			<circle id="SVGID_3_" cx="149.805" cy="374.1" r="25"/>
		</defs>
		<clipPath id="SVGID_4_">
			<use xlink:href="#SVGID_3_"  overflow="visible"/>
		</clipPath>
		
			<radialGradient id="SVGID_5_" cx="297.1992" cy="20.9458" r="36.6455" gradientTransform="matrix(1 0 0 -1 -156 379)" gradientUnits="userSpaceOnUse">
			<stop  offset="0.2114" style="stop-color:#FFF1E0;stop-opacity:0.8"/>
			<stop  offset="1" style="stop-color:#FFF1E0;stop-opacity:0.1"/>
		</radialGradient>
		<circle clip-path="url(#SVGID_4_)" fill="url(#SVGID_5_)" cx="150.805" cy="372.015" r="25.353"/>
	</g>
	<g>
		<defs>
			<circle id="SVGID_6_" cx="149.805" cy="374.1" r="25"/>
		</defs>
		<clipPath id="SVGID_7_">
			<use xlink:href="#SVGID_6_"  overflow="visible"/>
		</clipPath>
		
			<radialGradient id="SVGID_8_" cx="305.8047" cy="4.666" r="25.9944" gradientTransform="matrix(1 0 0 -1 -156 379)" gradientUnits="userSpaceOnUse">
			<stop  offset="0" style="stop-color:#FFF1E0;stop-opacity:0.1"/>
			<stop  offset="0.7472" style="stop-color:#FFF1E0;stop-opacity:0.1292"/>
			<stop  offset="1" style="stop-color:#FFF1E0"/>
		</radialGradient>
		<circle clip-path="url(#SVGID_7_)" fill="url(#SVGID_8_)" cx="149.805" cy="374.1" r="25"/>
	</g>
</g>
<g>
	<g>
		<g>
			<g>
				<g>
					
						<linearGradient id="SVGID_9_" gradientUnits="userSpaceOnUse" x1="305.7549" y1="1.9492" x2="305.7549" y2="1.9492" gradientTransform="matrix(1 0 0 -1 -156 379)">
						<stop  offset="0" style="stop-color:#FFF1E0;stop-opacity:0.2"/>
						<stop  offset="0.7763" style="stop-color:#FFF1E0;stop-opacity:0.9474"/>
					</linearGradient>
					<path fill="none" stroke="url(#SVGID_9_)" stroke-width="0.5" d="M149.755,377.051"/>
				</g>
			</g>
		</g>
	</g>
	<polyline fill="none" stroke="#FFF1E0" stroke-width="6" stroke-linecap="round" stroke-linejoin="round" points="109.81,357.003 
		123.363,362.164 137.248,377.371 152.454,366.792 166.669,379.354 179.23,360.842 189.811,369.686 	"/>
	<polyline fill="none" stroke="#9E2F50" stroke-width="3" stroke-linecap="round" stroke-linejoin="round" points="109.81,357.003 
		123.363,362.164 137.248,377.371 152.454,366.792 166.669,379.354 179.23,360.842 189.811,369.686 	"/>
</g>
</svg>
